<?xml version="1.0" encoding="UTF-8" standalone="no"?>
<svg width="100px" height="101px" viewBox="0 0 100 101" version="1.1" xmlns="http://www.w3.org/2000/svg" xmlns:xlink="http://www.w3.org/1999/xlink" xmlns:sketch="http://www.bohemiancoding.com/sketch/ns">
    <!-- Generator: Sketch 3.3 (11970) - http://www.bohemiancoding.com/sketch -->
    <title>Oval 1</title>
    <desc>Created with Sketch.</desc>
    <defs></defs>
    <g id="Page-1" stroke="none" stroke-width="1" fill="none" fill-rule="evenodd" sketch:type="MSPage">
        <path d="M52.3659971,46.6951514 L80.6351159,51.6797597 C83.3574821,52.1597863 85.1746955,54.7590256 84.6961551,57.4729636 C84.2166389,60.1924351 81.625604,62.0086756 78.8986341,61.5278373 L49.3648841,56.3202403 C48.742888,56.2105656 48.1681422,55.990265 47.657232,55.6832459 C46.4415195,55.3443571 45.3518183,54.5462373 44.6676552,53.361232 L34.6720908,36.0484065 C33.290154,33.6548219 34.113403,30.5923406 36.5,29.2144382 C38.8914631,27.8337263 41.9453103,28.6459924 43.3323448,31.0484065 L52.3659971,46.6951514 Z M50,100.204819 C77.6142375,100.204819 100,77.8190568 100,50.2048193 C100,22.5905818 77.6142375,0.204819277 50,0.204819277 C22.3857625,0.204819277 0,22.5905818 0,50.2048193 C0,77.8190568 22.3857625,100.204819 50,100.204819 Z M50,90.2048193 C72.09139,90.2048193 90,72.2962093 90,50.2048193 C90,28.1134293 72.09139,10.2048193 50,10.2048193 C27.90861,10.2048193 10,28.1134293 10,50.2048193 C10,72.2962093 27.90861,90.2048193 50,90.2048193 Z" id="Oval-1" fill="#D8D8D8" sketch:type="MSShapeGroup"></path>
    </g>
</svg>