<?xml version="1.0" encoding="UTF-8" standalone="no"?>
<svg width="75px" height="105px" viewBox="0 0 75 105" version="1.1" xmlns="http://www.w3.org/2000/svg" xmlns:xlink="http://www.w3.org/1999/xlink" xmlns:sketch="http://www.bohemiancoding.com/sketch/ns">
    <!-- Generator: Sketch 3.3 (11970) - http://www.bohemiancoding.com/sketch -->
    <title>Rectangle 7</title>
    <desc>Created with Sketch.</desc>
    <defs></defs>
    <g id="Page-1" stroke="none" stroke-width="1" fill="none" fill-rule="evenodd" sketch:type="MSPage">
        <path d="M0,24.0000638 L0,94.9999362 C0,100.525267 4.4763408,105 9.99818701,105 L65.001813,105 C70.5191168,105 75,100.522819 75,94.9999362 C75,94.9999362 74.983295,24.3289135 74.9506673,24 L65.001609,24 L65,84.9999362 C65,90.5228189 60.5224389,95 55.008028,95 L19.991972,95 C14.4735582,95 10,90.5252671 10,84.9999362 L10,24 L0,24.0000638 L0,24.0000638 Z M0,13 C0,10.2385763 2.24460103,8 5.0081945,8 L69.9918055,8 C72.7577549,8 75,10.2441952 75,13 C75,15.7614237 72.755399,18 69.9918055,18 L5.0081945,18 C2.24224505,18 0,15.7558048 0,13 L0,13 Z M20,2.5 C20,1.11928813 21.1248719,3.63797881e-12 22.5030677,3.63797881e-12 L52.4969323,3.63797881e-12 C53.8793384,3.63797881e-12 55,1.10966206 55,2.5 C55,3.88071187 53.8751281,5 52.4969323,5 L22.5030677,5 C21.1206616,5 20,3.89033794 20,2.5 L20,2.5 Z M44,32.9995286 C44,30.2383652 46.2441952,28 49,28 C51.7614237,28 54,30.2425656 54,32.9995286 L54,83.0004714 C54,85.7616348 51.7558048,88 49,88 C46.2385763,88 44,85.7574344 44,83.0004714 L44,32.9995286 L44,32.9995286 Z M22,32.9995286 C22,30.2383652 24.2441952,28 27,28 C29.7614237,28 32,30.2425656 32,32.9995286 L32,83.0004714 C32,85.7616348 29.7558048,88 27,88 C24.2385763,88 22,85.7574344 22,83.0004714 L22,32.9995286 L22,32.9995286 Z" id="Rectangle-7" fill="#D8D8D8" sketch:type="MSShapeGroup"></path>
    </g>
</svg>